<svg width="24" height="24" viewBox="0 0 24 24" fill="none" xmlns="http://www.w3.org/2000/svg">
<path d="M12 20L11.3692 20.776C11.7367 21.0747 12.2633 21.0747 12.6308 20.776L12 20ZM18 10.2857C18 11.0255 17.6682 11.9489 17.0476 12.9885C16.4383 14.0093 15.6109 15.0429 14.76 15.9792C13.9125 16.9118 13.0617 17.7259 12.4212 18.3079C12.1016 18.5983 11.836 18.8295 11.6514 18.9872C11.5591 19.066 11.4872 19.1263 11.439 19.1664C11.4149 19.1865 11.3968 19.2014 11.385 19.2111C11.3791 19.216 11.3748 19.2195 11.3722 19.2216C11.3708 19.2227 11.3699 19.2235 11.3694 19.2239C11.3692 19.2241 11.369 19.2242 11.369 19.2242C11.369 19.2242 11.369 19.2242 11.369 19.2242C11.3691 19.2241 11.3692 19.224 12 20C12.6308 20.776 12.631 20.7758 12.6311 20.7757C12.6312 20.7756 12.6314 20.7754 12.6316 20.7753C12.632 20.7749 12.6325 20.7745 12.6331 20.7741C12.6343 20.7731 12.636 20.7717 12.638 20.7701C12.6421 20.7667 12.6478 20.762 12.6552 20.756C12.6699 20.7439 12.6911 20.7264 12.7182 20.7038C12.7726 20.6586 12.8511 20.5927 12.9502 20.5081C13.1484 20.3388 13.4296 20.094 13.7663 19.7881C14.4383 19.1774 15.3375 18.3174 16.24 17.3243C17.1391 16.335 18.0617 15.1916 18.7649 14.0137C19.4568 12.8547 20 11.5578 20 10.2857H18ZM12 20C12.6308 19.224 12.6309 19.2241 12.631 19.2242C12.631 19.2242 12.631 19.2242 12.631 19.2242C12.631 19.2242 12.6308 19.2241 12.6306 19.2239C12.6301 19.2235 12.6292 19.2227 12.6278 19.2216C12.6252 19.2195 12.6209 19.216 12.615 19.2111C12.6032 19.2014 12.5851 19.1865 12.561 19.1664C12.5128 19.1263 12.4409 19.066 12.3486 18.9872C12.164 18.8295 11.8984 18.5983 11.5788 18.3079C10.9383 17.7259 10.0875 16.9118 9.24004 15.9792C8.38913 15.0429 7.56174 14.0093 6.95239 12.9885C6.33175 11.9489 6 11.0255 6 10.2857H4C4 11.5578 4.54325 12.8547 5.23511 14.0137C5.93826 15.1916 6.86087 16.335 7.75996 17.3243C8.66246 18.3174 9.56172 19.1774 10.2337 19.7881C10.5704 20.094 10.8516 20.3388 11.0498 20.5081C11.1489 20.5927 11.2274 20.6586 11.2818 20.7038C11.3089 20.7264 11.3301 20.7439 11.3448 20.756C11.3522 20.762 11.3579 20.7667 11.362 20.7701C11.3641 20.7717 11.3657 20.7731 11.3669 20.7741C11.3675 20.7745 11.368 20.7749 11.3684 20.7753C11.3686 20.7754 11.3688 20.7756 11.3689 20.7757C11.369 20.7758 11.3692 20.776 12 20ZM6 10.2857C6 6.77613 8.72362 4 12 4V2C7.54439 2 4 5.74772 4 10.2857H6ZM12 4C15.2764 4 18 6.77613 18 10.2857H20C20 5.74772 16.4556 2 12 2V4Z" fill="#231F20" fill-opacity="0.8"/>
<circle cx="12" cy="10" r="3" stroke="#231F20" stroke-opacity="0.8" stroke-width="2"/>
</svg>
