<svg width="24" height="24" viewBox="0 0 24 24" fill="none" xmlns="http://www.w3.org/2000/svg">
<path fill-rule="evenodd" clip-rule="evenodd" d="M10.0002 2C8.34335 2 7.0002 3.34315 7.0002 5V7H6.23473C4.4467 7 3.05562 8.55419 3.25308 10.3313L4.14197 18.3313C4.31078 19.8506 5.59497 21 7.12362 21H16.8768C18.4054 21 19.6896 19.8506 19.8584 18.3313L20.7473 10.3313C20.9448 8.5542 19.5537 7 17.7657 7H17.0002V5C17.0002 3.34315 15.6571 2 14.0002 2H10.0002ZM15.0002 7V5C15.0002 4.44772 14.5525 4 14.0002 4H10.0002C9.44792 4 9.0002 4.44772 9.0002 5V7H15.0002ZM5.24085 10.1104C5.17503 9.51806 5.63872 9 6.23473 9H17.7657C18.3617 9 18.8254 9.51807 18.7596 10.1104L17.8707 18.1104C17.8144 18.6169 17.3863 19 16.8768 19H7.12362C6.61407 19 6.18601 18.6169 6.12974 18.1104L5.24085 10.1104Z" fill="#397479"/>
</svg>
