<svg width="25" height="24" viewBox="0 0 25 24" fill="none" xmlns="http://www.w3.org/2000/svg">
<path fill-rule="evenodd" clip-rule="evenodd" d="M10.5002 2C8.84335 2 7.5002 3.34315 7.5002 5V7H6.73473C4.9467 7 3.55562 8.55419 3.75308 10.3313L4.64197 18.3313C4.81078 19.8506 6.09497 21 7.62362 21H17.3768C18.9054 21 20.1896 19.8506 20.3584 18.3313L21.2473 10.3313C21.4448 8.5542 20.0537 7 18.2657 7H17.5002V5C17.5002 3.34315 16.1571 2 14.5002 2H10.5002ZM15.5002 7V5C15.5002 4.44772 15.0525 4 14.5002 4H10.5002C9.94792 4 9.5002 4.44772 9.5002 5V7H15.5002ZM5.74085 10.1104C5.67503 9.51806 6.13872 9 6.73473 9H18.2657C18.8617 9 19.3254 9.51807 19.2596 10.1104L18.3707 18.1104C18.3144 18.6169 17.8863 19 17.3768 19H7.62362C7.11407 19 6.68601 18.6169 6.62974 18.1104L5.74085 10.1104Z" fill="white"/>
</svg>
