<svg width="216" height="52" viewBox="0 0 216 52" fill="none" xmlns="http://www.w3.org/2000/svg">
<path fill-rule="evenodd" clip-rule="evenodd" d="M62.4697 31.1392V32.0827H72.9921V31.1392H72.559C71.8719 31.1392 71.2969 31.0055 70.8263 30.738C70.3634 30.4706 70.042 30.0227 69.8631 29.4015C69.6912 28.7799 69.8332 27.9622 70.3037 26.9478L77.5253 10.5683L84.784 26.9478C85.2699 27.9622 85.419 28.7799 85.2472 29.4015C85.0755 30.0227 84.7542 30.4706 84.284 30.738C83.821 31.0055 83.2307 31.1392 82.5363 31.1392H82.096V32.0827H97.0617V31.1392H96.621C95.5754 31.1392 94.6648 30.848 93.9028 30.2664C93.1338 29.6843 92.3943 28.5757 91.6772 26.9478L79.758 0C79.4673 1.06156 78.6975 2.03671 77.4656 2.933C76.2333 3.83738 74.9264 4.27778 73.5446 4.26243C74.7099 5.29245 75.3672 6.36964 75.5091 7.50965C75.6583 8.6424 75.3745 9.97894 74.6574 11.5122L67.8541 26.9478C67.1372 28.5757 66.398 29.6843 65.6291 30.2664C64.8669 30.848 63.9556 31.1392 62.9105 31.1392H62.4697ZM0 31.1392V32.0827H14.2939V31.1392H13.8383C12.8081 31.1392 11.9491 30.7932 11.2773 30.0931C10.5975 29.3934 10.2611 28.3476 10.2611 26.9478V4.71804H24.6449V26.9478C24.6449 28.3476 24.3087 29.3934 23.6292 30.0931C22.9494 30.7932 22.0908 31.1392 21.0525 31.1392H20.6122V32.0827H34.9061V31.1392H34.4429C33.4048 31.1392 32.5536 30.7932 31.8811 30.0931C31.2092 29.3934 30.8733 28.3476 30.8733 26.9478V6.10219C30.8733 4.68706 31.2092 3.63317 31.8811 2.93299C32.5536 2.23339 33.4048 1.88735 34.4429 1.88735H34.9061V0.94389H0V1.88735H0.455643C1.48637 1.88735 2.34529 2.24106 3.01742 2.94919C3.69724 3.6569 4.03276 4.70226 4.03276 6.10219V26.9478C4.03276 28.3476 3.69724 29.3934 3.01742 30.0931C2.34529 30.7932 1.48637 31.1392 0.455643 31.1392H0ZM98.6344 32.0827V31.1392H99.09C100.121 31.1392 100.979 30.7932 101.652 30.0931C102.331 29.3934 102.667 28.3476 102.667 26.9478V6.10219C102.667 4.70226 102.331 3.6569 101.652 2.94919C100.979 2.24106 100.121 1.88735 99.09 1.88735H98.6344V0.94389H112.928V1.88735H112.473C111.442 1.88735 110.584 2.24106 109.912 2.94919C109.232 3.6569 108.896 4.70226 108.896 6.10219V16.5133C109.979 15.2077 111.256 14.2091 112.719 13.5251C114.183 12.841 115.684 12.5031 117.215 12.5031C120.15 12.5031 122.525 13.3994 124.354 15.1844C126.177 16.977 127.088 19.3835 127.088 22.4107C127.088 24.1567 126.737 25.6741 126.027 26.9478C125.318 28.2216 124.325 29.2283 123.033 29.9594C121.741 30.6985 120.285 31.2413 118.656 31.5796C117.028 31.9176 115.214 32.0827 113.197 32.0827H98.6344ZM108.896 29.7234H110.479C113.728 29.7234 116.11 29.173 117.633 28.0645C119.157 26.9635 119.919 25.0767 119.919 22.4107C119.919 20.4135 119.463 18.817 118.56 17.6142C117.648 16.411 116.304 15.8056 114.519 15.8056C112.114 15.8056 110.24 16.6705 108.896 18.4082V29.7234ZM129.105 32.0827V31.1392H129.567C130.605 31.1392 131.457 30.7932 132.129 30.0931C132.801 29.3934 133.137 28.3476 133.137 26.9478V6.10219C133.137 4.68706 132.801 3.63317 132.129 2.93299C131.457 2.23339 130.605 1.88735 129.567 1.88735H129.105V0.94389H143.398V1.88735H142.957C141.919 1.88735 141.06 2.24106 140.381 2.94919C139.701 3.6569 139.365 4.70226 139.365 6.10219V26.9478C139.365 28.3476 139.701 29.3934 140.381 30.0931C141.06 30.7932 141.919 31.1392 142.957 31.1392H143.398V32.0827H129.105ZM147.633 31.1392V32.0827H161.927V31.1392H161.472C160.441 31.1392 159.582 30.7932 158.91 30.0931C158.23 29.3934 157.894 28.3397 157.894 26.9478V18.1645H173.174V26.9478C173.174 28.3397 172.831 29.3934 172.151 30.0931C171.464 30.7932 170.605 31.1392 169.559 31.1392H169.096V32.0827H183.435V31.1392H182.972C181.934 31.1392 181.083 30.7932 180.41 30.0931C179.738 29.3934 179.402 28.3476 179.402 26.9478V6.10219C179.402 4.68706 179.738 3.63317 180.41 2.93299C181.083 2.23339 181.934 1.88735 182.972 1.88735H183.435V0.94389H169.096V1.88735H169.559C170.605 1.88735 171.464 2.24106 172.151 2.94919C172.831 3.6569 173.174 4.70226 173.174 6.10219V14.39H157.894V6.10219C157.894 4.70226 158.23 3.6569 158.91 2.94919C159.582 2.24106 160.441 1.88735 161.472 1.88735H161.927V0.94389H147.633V1.88735H148.089C149.119 1.88735 149.978 2.24106 150.65 2.94919C151.33 3.6569 151.666 4.70226 151.666 6.10219V26.9478C151.666 28.3476 151.33 29.3934 150.65 30.0931C149.978 30.7932 149.119 31.1392 148.089 31.1392H147.633ZM187.547 32.0002V31.0567H188.003C189.033 31.0567 189.892 30.7107 190.564 30.0106C191.244 29.3109 191.58 28.2651 191.58 26.8653V6.01967C191.58 4.61975 191.244 3.57438 190.564 2.86667C189.892 2.15854 189.033 1.80483 188.003 1.80483H187.547V0.86137H201.841V1.80483H201.385C200.354 1.80483 199.496 2.15854 198.824 2.86667C198.144 3.57438 197.808 4.61975 197.808 6.01967V16.4308C198.891 15.1252 200.168 14.1266 201.631 13.4426C203.096 12.7585 204.596 12.4206 206.128 12.4206C209.062 12.4206 211.437 13.3169 213.267 15.1019C215.089 16.8945 216 19.301 216 22.3282C216 24.0741 215.649 25.5916 214.939 26.8653C214.23 28.1391 213.237 29.1457 211.945 29.8769C210.653 30.616 209.197 31.1587 207.569 31.4971C205.941 31.835 204.126 32.0002 202.11 32.0002H187.547ZM197.808 29.6409H199.391C202.64 29.6409 205.022 29.0905 206.546 27.982C208.069 26.8809 208.831 24.9942 208.831 22.3282C208.831 20.331 208.376 18.7345 207.472 17.5317C206.561 16.3285 205.216 15.7231 203.431 15.7231C201.027 15.7231 199.152 16.5879 197.808 18.3257V29.6409ZM36.0794 40.7587V41.0193H36.2049C36.4896 41.0193 36.7268 41.1173 36.9123 41.3127C37.1001 41.5079 37.1927 41.7968 37.1927 42.1831V49.6177L43.1319 43.6272V47.9391C43.1319 48.3259 43.037 48.6147 42.8491 48.8077C42.6594 49.0011 42.4226 49.0969 42.1338 49.0969H42.006V49.3571H45.9653V49.0969H45.8375C45.551 49.0969 45.3156 49.0011 45.1302 48.8077C44.9446 48.6147 44.8516 48.3259 44.8516 47.9391V40.4985L38.9129 46.3608V42.1831C38.9129 41.7968 39.0054 41.5079 39.1933 41.3127C39.3788 41.1173 39.616 41.0193 39.9003 41.0193H40.0265V40.7587H36.0794ZM50.5253 46.2694C50.3026 46.5562 50.1912 46.9079 50.1912 47.3273C50.1912 48.0286 50.4469 48.5846 50.9584 48.9965C51.4698 49.4115 52.1787 49.6177 53.0885 49.6177C54.0824 49.6177 54.8556 49.3853 55.4043 48.9208C55.9548 48.4559 56.229 47.8179 56.229 47.0078C56.229 46.3 56.0125 45.7506 55.5794 45.3642C55.1463 44.9755 54.5649 44.7781 53.8307 44.7693C54.4742 44.615 54.9815 44.3458 55.3507 43.9572C55.7218 43.5709 55.9074 43.0932 55.9074 42.5307C55.9074 42.0812 55.7796 41.7013 55.5217 41.3863C55.2639 41.0738 54.938 40.8477 54.5399 40.7067C54.1421 40.5677 53.6968 40.4985 53.2018 40.4985C52.9937 40.4985 52.7832 40.5286 52.5751 40.5875C52.3647 40.6459 52.1914 40.7047 52.0574 40.7631C51.9212 40.8239 51.7873 40.8694 51.6511 40.9021C51.515 40.9368 51.3849 40.9263 51.257 40.8718C51.1294 40.8175 51.0016 40.7067 50.8733 40.5416L50.6137 40.6305L51.2055 43.2603L51.5769 43.2038C51.5769 42.5131 51.7005 41.9986 51.9462 41.6578C52.1914 41.3191 52.5272 41.1494 52.9542 41.1494C53.7771 41.1494 54.1877 41.6469 54.1877 42.6435C54.1877 43.7054 53.6307 44.3544 52.517 44.5977V45.1189C52.8039 45.1145 53.0637 45.1451 53.2943 45.21C53.5277 45.2772 53.7358 45.3791 53.9237 45.5185C54.1093 45.6595 54.2534 45.8549 54.3568 46.1067C54.4577 46.3588 54.509 46.6605 54.509 47.0078C54.509 47.6048 54.3835 48.0805 54.1318 48.4342C53.8824 48.7883 53.4925 48.9664 52.9665 48.9664C52.6325 48.9664 52.3543 48.8946 52.1316 48.7537C51.911 48.6123 51.7996 48.4386 51.7996 48.2348C51.7996 48.1088 51.8203 47.9959 51.8612 47.896C51.9048 47.7961 51.9564 47.7116 52.0181 47.6439C52.0801 47.5766 52.142 47.5074 52.2017 47.4376C52.2613 47.3684 52.313 47.2813 52.3562 47.1774C52.3975 47.0731 52.4183 46.9534 52.4183 46.8188C52.4183 46.5389 52.3234 46.3065 52.1336 46.1199C51.9462 45.9331 51.6902 45.8396 51.3684 45.8396C51.0302 45.8396 50.7499 45.9829 50.5253 46.2694ZM60.5867 48.5712H60.3391L61.0217 51.4289H61.2696C61.3701 50.9358 61.4961 50.5451 61.6487 50.2542C61.8032 49.963 62.0199 49.7415 62.2983 49.5876C62.5787 49.4332 62.9376 49.3571 63.3707 49.3571H67.0331C67.3587 49.3571 67.6331 49.3961 67.8579 49.4743C68.0806 49.5525 68.2662 49.6831 68.4169 49.8655C68.5654 50.0476 68.6828 50.2607 68.7692 50.4992C68.8561 50.7405 68.9383 51.0486 69.0148 51.4289H69.2619L70.0666 48.5712H69.8172C69.8129 48.5756 69.7964 48.5865 69.7632 48.6039C69.7303 48.6212 69.7119 48.6296 69.7058 48.632L69.7027 48.6332L69.6985 48.635L69.6918 48.6383L69.6725 48.6484L69.6583 48.6558L69.65 48.6591C69.627 48.6685 69.6091 48.6757 69.5964 48.6775C69.5837 48.6799 69.5635 48.684 69.5367 48.6909C69.5096 48.6973 69.4827 48.7017 69.456 48.7038C69.4273 48.7058 69.3943 48.7058 69.3591 48.7058C69.2953 48.7058 69.2333 48.7017 69.1779 48.6928C69.122 48.684 69.0684 48.6647 69.021 48.6364C68.9712 48.6059 68.9303 48.58 68.8932 48.5603C68.858 48.5385 68.819 48.4974 68.7754 48.4386C68.7345 48.3802 68.7016 48.3367 68.6786 48.3086C68.656 48.2803 68.625 48.224 68.586 48.1389C68.5447 48.0543 68.5179 47.9979 68.5033 47.9654L68.4856 47.9248L68.4851 47.9236L68.4844 47.922C68.4681 47.8845 68.4446 47.8307 68.4127 47.759L68.3419 47.594L68.3198 47.5419L65.2017 40.4985C65.1214 40.7913 64.9109 41.0608 64.5708 41.3081C64.2307 41.5559 63.8699 41.6796 63.4862 41.6752C63.808 41.9576 63.9893 42.2573 64.0307 42.5719C64.0697 42.8844 63.9913 43.2539 63.7934 43.6772L62.0841 47.5419C62.0765 47.56 62.0667 47.5823 62.0549 47.6092C62.0442 47.6337 62.0317 47.6619 62.0178 47.6942C61.9498 47.8481 61.9004 47.9588 61.8675 48.0326C61.8343 48.1044 61.7868 48.1933 61.7229 48.2996C61.6571 48.4041 61.5974 48.4822 61.5415 48.5277C61.4838 48.5736 61.4116 48.6167 61.3228 48.6513C61.2344 48.6884 61.1376 48.7058 61.0343 48.7058C60.8755 48.7058 60.727 48.6602 60.5867 48.5712ZM62.6426 48.2195C62.5975 48.0479 62.6384 47.822 62.7666 47.5419L64.5854 43.4166L66.4163 47.5419C66.5093 47.7463 66.5568 47.9243 66.5587 48.0805C66.5606 48.2348 66.5235 48.354 66.4497 48.4407C66.375 48.5277 66.2843 48.5949 66.175 48.6384C66.066 48.684 65.9423 48.7058 65.8001 48.7058H63.3829C63.1955 48.7058 63.0344 48.6667 62.9066 48.591C62.7766 48.5148 62.6901 48.3911 62.6426 48.2195ZM73.9065 49.0969V49.3571H76.8122V49.0969H76.6929C76.5031 49.0969 76.344 49.0598 76.2143 48.9857C76.0865 48.91 75.9977 48.7883 75.9484 48.6147C75.9009 48.4432 75.9399 48.2175 76.07 47.9371L76.3298 47.3381H79.7983L80.0683 47.9371C80.2022 48.2175 80.2435 48.4432 80.1962 48.6147C80.1491 48.7883 80.06 48.91 79.9303 48.9857C79.8025 49.0598 79.6394 49.0969 79.4478 49.0969H79.3262V49.3571H83.4584V49.0969H83.3371C83.0482 49.0969 82.7965 49.0163 82.5865 48.8556C82.3737 48.6948 82.1699 48.3887 81.9716 47.9391L78.6808 40.4985C78.6001 40.7913 78.3876 41.0608 78.0475 41.3081C77.7074 41.5559 77.3462 41.6796 76.9648 41.6752C77.2866 41.9576 77.468 42.2573 77.5074 42.5719C77.5487 42.8844 77.4699 43.2539 77.272 43.6772L75.3936 47.9391C75.1954 48.3887 74.9915 48.6928 74.7792 48.8556C74.5688 49.0163 74.3171 49.0969 74.0285 49.0969H73.9065ZM78.064 43.4166L79.3383 46.2956H76.7896L78.064 43.4166ZM87.6697 40.3679L87.4203 43.104C87.8886 42.6609 88.2513 42.335 88.5092 42.1223C88.767 41.9119 89.0329 41.738 89.3095 41.6078C89.5857 41.4754 89.8638 41.4104 90.1466 41.4104H90.8888V47.9391C90.8723 48.3279 90.7737 48.6187 90.5919 48.8101C90.4106 49.0011 90.1795 49.0969 89.8972 49.0969H89.7754V49.3571H93.7225V49.0969H93.5944C93.3121 49.0969 93.081 49.0011 92.9015 48.8101C92.7221 48.6187 92.6254 48.3279 92.6089 47.9391V41.4104H93.5925C93.7348 41.4104 93.8645 41.4214 93.9861 41.4451C94.1078 41.4688 94.2153 41.4971 94.3101 41.5318C94.4047 41.5643 94.5038 41.6208 94.6089 41.6989C94.7123 41.7771 94.7987 41.8487 94.8688 41.9119C94.9369 41.9769 95.0256 42.0748 95.135 42.2092C95.2422 42.3418 95.3309 42.4571 95.3986 42.5501C95.4691 42.6435 95.57 42.7825 95.702 42.9694L96.1967 40.2335C95.7058 40.5831 95.0852 40.7587 94.337 40.7587H89.4021C88.6124 40.7587 88.0348 40.6285 87.6697 40.3679ZM100.171 49.0969V49.3571H107.088L107.832 47.0123C107.622 47.3076 107.403 47.5592 107.172 47.768C106.943 47.9762 106.698 48.1498 106.434 48.2932C106.17 48.4342 105.865 48.5451 105.518 48.6232C105.172 48.7017 104.8 48.7557 104.407 48.7883C104.011 48.8209 103.545 48.8362 103.004 48.8362V45.3835H104.873V46.4172C104.873 46.5107 104.902 46.5865 104.962 46.6473C105.019 46.7086 105.094 46.7387 105.182 46.7387C105.271 46.7387 105.345 46.7086 105.403 46.6473C105.463 46.5865 105.491 46.5088 105.491 46.4172V43.6985C105.491 43.6076 105.463 43.5294 105.403 43.4686C105.345 43.4078 105.271 43.3775 105.182 43.3775C105.094 43.3775 105.019 43.4078 104.962 43.4686C104.902 43.5294 104.873 43.6055 104.873 43.6985V44.7322H103.004V41.4104H104.617C104.887 41.4104 105.112 41.4254 105.291 41.4556C105.471 41.4842 105.671 41.549 105.892 41.6513C106.114 41.7533 106.339 41.9119 106.57 42.1223C106.799 42.335 107.055 42.6178 107.337 42.9694L106.72 40.1073L106.226 40.7587H100.171V41.0193H100.297C100.581 41.0193 100.819 41.1173 101.004 41.3127C101.192 41.5079 101.285 41.7968 101.285 42.1831V47.9391C101.285 48.3259 101.192 48.6147 101.004 48.8077C100.819 49.0011 100.581 49.0969 100.297 49.0969H100.171ZM111.682 49.0969V49.3571H114.588V49.0969H114.469C114.279 49.0969 114.12 49.0598 113.99 48.9857C113.862 48.912 113.773 48.7883 113.724 48.6167C113.677 48.4451 113.716 48.2195 113.846 47.9391L115.84 43.4166L117.844 47.9391C117.978 48.2195 118.019 48.4451 117.972 48.6167C117.924 48.7883 117.836 48.912 117.706 48.9857C117.578 49.0598 117.415 49.0969 117.224 49.0969H117.102V49.3571H121.234V49.0969H121.113C120.824 49.0969 120.572 49.0163 120.362 48.8556C120.149 48.6948 119.946 48.3887 119.747 47.9391L116.456 40.4985C116.376 40.7913 116.163 41.0608 115.823 41.3081C115.483 41.5579 115.122 41.6796 114.741 41.6752C115.062 41.9595 115.244 42.2573 115.283 42.5719C115.324 42.8844 115.246 43.2539 115.048 43.6772L113.169 47.9391C112.971 48.3887 112.767 48.6948 112.555 48.8556C112.345 49.0163 112.093 49.0969 111.804 49.0969H111.682ZM125.2 49.0969V49.3571H129.221C129.778 49.3571 130.279 49.3116 130.729 49.2181C131.179 49.1247 131.581 48.9748 131.937 48.771C132.294 48.5692 132.568 48.2912 132.764 47.9391C132.96 47.5875 133.057 47.1686 133.057 46.6868C133.057 45.8505 132.805 45.1861 132.302 44.6912C131.797 44.1981 131.141 43.9508 130.331 43.9508C129.908 43.9508 129.494 44.0441 129.089 44.2332C128.685 44.422 128.333 44.6976 128.034 45.0581V42.1831C128.034 41.7968 128.126 41.5079 128.314 41.3127C128.5 41.1173 128.737 41.0193 129.022 41.0193H129.147V40.7587H125.2V41.0193H125.326C125.61 41.0193 125.848 41.1173 126.033 41.3127C126.221 41.5079 126.314 41.7968 126.314 42.1831V47.9391C126.314 48.3259 126.221 48.6147 126.033 48.8077C125.848 49.0011 125.61 49.0969 125.326 49.0969H125.2ZM128.471 48.7058H128.034V45.5813C128.405 45.1016 128.923 44.8623 129.586 44.8623C130.079 44.8623 130.45 45.03 130.702 45.3618C130.952 45.6942 131.077 46.1349 131.077 46.6868C131.077 47.4224 130.867 47.9436 130.446 48.2478C130.025 48.5539 129.368 48.7058 128.471 48.7058ZM137.582 43.282C137.374 43.8375 137.27 44.4286 137.27 45.0557C137.27 45.6922 137.365 46.2827 137.557 46.8298C137.749 47.3772 138.023 47.8614 138.382 48.2779C138.739 48.6973 139.2 49.0228 139.764 49.2617C140.326 49.4985 140.96 49.6177 141.661 49.6177C142.498 49.6177 143.261 49.3616 143.95 48.8472C144.638 48.3343 145.154 47.5919 145.496 46.619C144.705 48.0109 143.653 48.7058 142.343 48.7058C141.409 48.7058 140.661 48.354 140.096 47.6527C139.533 46.9514 139.25 45.9983 139.25 44.7931C139.25 43.6704 139.448 42.7825 139.842 42.1288C140.238 41.4754 140.823 41.1494 141.601 41.1494C142.063 41.1494 142.556 41.3561 143.073 41.7707C143.593 42.1831 144.195 42.8128 144.88 43.6619L144.632 40.4985L143.89 40.9541C143.125 40.6503 142.362 40.4985 141.601 40.4985C140.955 40.4985 140.362 40.6177 139.815 40.8566C139.269 41.0975 138.813 41.4214 138.444 41.8335C138.077 42.2439 137.788 42.7261 137.582 43.282ZM149.833 40.3679L149.584 43.104C150.052 42.6609 150.415 42.335 150.673 42.1223C150.931 41.9119 151.197 41.738 151.473 41.6078C151.749 41.4754 152.027 41.4104 152.31 41.4104H153.052V47.9391C153.036 48.3279 152.937 48.6187 152.756 48.8101C152.574 49.0011 152.343 49.0969 152.06 49.0969H151.939V49.3571H155.886V49.0969H155.758C155.475 49.0969 155.245 49.0011 155.065 48.8101C154.886 48.6187 154.789 48.3279 154.772 47.9391V41.4104H155.756C155.898 41.4104 156.028 41.4214 156.15 41.4451C156.271 41.4688 156.379 41.4971 156.474 41.5318C156.568 41.5643 156.667 41.6208 156.773 41.6989C156.876 41.7771 156.962 41.8487 157.032 41.9119C157.101 41.9769 157.189 42.0748 157.298 42.2092C157.406 42.3418 157.494 42.4571 157.562 42.5501C157.632 42.6435 157.734 42.7825 157.866 42.9694L158.36 40.2335C157.869 40.5831 157.249 40.7587 156.5 40.7587H151.566C150.776 40.7587 150.198 40.6285 149.833 40.3679ZM162.33 49.0969V49.3571H166.603C167.9 49.3571 168.886 49.1489 169.556 48.7339C170.226 48.317 170.563 47.6547 170.563 46.7472C170.563 46.1393 170.317 45.6466 169.824 45.2689C169.331 44.8886 168.554 44.6649 167.488 44.5977C168.267 44.4112 168.859 44.1243 169.27 43.738C169.678 43.3534 169.882 42.9235 169.882 42.4527C169.882 41.3235 169.107 40.7587 167.554 40.7587H162.33V41.0193H162.458C162.743 41.0193 162.98 41.1173 163.168 41.3127C163.355 41.5079 163.448 41.7968 163.448 42.1831V47.9391C163.448 48.3259 163.355 48.6147 163.168 48.8077C162.98 49.0011 162.743 49.0969 162.458 49.0969H162.33ZM166.475 48.7058H165.168V45.1883H166.475C166.766 45.1883 167.034 45.2188 167.277 45.2797C167.523 45.3425 167.743 45.436 167.944 45.564C168.144 45.6902 168.3 45.8659 168.414 46.0914C168.527 46.3153 168.583 46.58 168.583 46.8797C168.583 47.5464 168.41 48.0177 168.061 48.2932C167.715 48.5692 167.187 48.7058 166.475 48.7058ZM167.35 44.0116C166.857 44.3849 166.129 44.6041 165.168 44.6673V41.4104H166.228C167.467 41.4104 168.088 41.8008 168.088 42.5807C168.088 43.1624 167.843 43.6381 167.35 44.0116ZM174.774 45.0581C174.774 45.6857 174.877 46.2763 175.085 46.8322C175.291 47.3881 175.58 47.8723 175.949 48.2824C176.316 48.6928 176.774 49.0183 177.32 49.2596C177.865 49.4985 178.461 49.6177 179.104 49.6177C179.748 49.6177 180.344 49.4985 180.89 49.2596C181.434 49.0183 181.892 48.6928 182.259 48.2824C182.628 47.8723 182.917 47.3881 183.123 46.8322C183.332 46.2763 183.435 45.6857 183.435 45.0581C183.435 44.4305 183.332 43.8399 183.123 43.284C182.917 42.7281 182.628 42.2439 182.259 41.8335C181.892 41.4234 181.434 41.0975 180.89 40.8566C180.344 40.6177 179.748 40.4985 179.104 40.4985C178.461 40.4985 177.865 40.6177 177.32 40.8566C176.774 41.0975 176.316 41.4234 175.949 41.8335C175.58 42.2439 175.291 42.7281 175.085 43.284C174.877 43.8399 174.774 44.4305 174.774 45.0581ZM176.339 44.4543C176.209 43.8682 176.218 43.3275 176.36 42.828C176.502 42.331 176.799 41.9466 177.251 41.6752C177.919 41.2712 178.599 41.282 179.292 41.7033C179.985 42.1247 180.602 42.8325 181.146 43.8246C181.501 44.4696 181.742 45.0838 181.87 45.6685C182 46.2545 181.992 46.7951 181.849 47.2946C181.707 47.7917 181.41 48.176 180.958 48.4476C180.29 48.8512 179.609 48.8404 178.917 48.4193C178.224 47.9979 177.607 47.2902 177.063 46.298C176.708 45.6531 176.467 45.0383 176.339 44.4543ZM62.5731 14.2955L62.5737 14.3088L62.5741 14.3206C62.5744 14.3247 62.5746 14.3288 62.5751 14.3328L62.5755 14.3361L62.5731 14.2955ZM65.1638 13.0576C65.3061 13.7352 65.4097 14.4236 65.4512 15.1503C65.7243 18.3025 65.067 21.5279 63.5604 24.2651C62.0546 27.006 59.7572 29.2776 57.0187 30.6109C55.6551 31.2836 54.1945 31.7458 52.6998 31.9524C51.9518 32.0426 51.1986 32.107 50.4456 32.0747L49.317 32.0156C49.0714 31.9868 48.8269 31.9467 48.5824 31.9066L48.5823 31.9066L48.5823 31.9066L48.5823 31.9066L48.5822 31.9066L48.5822 31.9066L48.5822 31.9066L48.5821 31.9066L48.5821 31.9065L48.5821 31.9065L48.582 31.9065L48.5819 31.9065L48.5817 31.9065L48.5816 31.9065L48.5814 31.9064L48.5813 31.9064L48.5811 31.9064L48.581 31.9064L48.5808 31.9064C48.4534 31.8854 48.3259 31.8645 48.1983 31.8452C46.7208 31.5556 45.2594 31.0875 43.9295 30.3322C42.597 29.5885 41.3689 28.6451 40.2889 27.5349C39.2323 26.3993 38.335 25.1062 37.6273 23.7036C36.9062 22.3045 36.4608 20.7637 36.1838 19.206C35.8935 17.6429 35.9125 16.0341 36.0893 14.4611C36.2577 12.8791 36.7241 11.3415 37.358 9.90306C37.4192 9.77988 37.4752 9.65369 37.5313 9.52748L37.5313 9.52745C37.6352 9.29329 37.7392 9.05906 37.8764 8.84392L38.4674 7.82684C38.5305 7.738 38.5932 7.64889 38.656 7.55976L38.656 7.55972L38.6561 7.55969C39.0427 7.01073 39.4296 6.46141 39.8865 5.97373C40.9175 4.82051 42.0881 3.78638 43.4131 3.02382C44.7283 2.25443 46.1416 1.65629 47.6179 1.33029C49.0824 1.0266 50.583 0.917039 52.0713 1.05005L52.0754 1.05034V1.51844L52.1178 1.98215C45.6634 2.64083 40.7967 8.29168 40.7967 15.1264C40.7967 22.4108 46.4228 28.3365 53.3387 28.3365C56.92 28.3365 60.3249 26.7232 62.7015 23.9107C62.7126 23.8912 62.7244 23.8722 62.7362 23.8533L62.7362 23.8532L62.7362 23.8532C62.7495 23.8317 62.7628 23.8104 62.7749 23.7886C63.1075 23.1883 63.3921 22.5599 63.6361 21.9146C63.7969 21.1529 63.8017 20.2597 63.5994 19.4629C63.4537 18.8595 63.1874 18.2919 62.8285 17.7876C62.4085 17.4846 61.8974 17.2599 61.382 17.1998C60.8051 17.1238 60.2098 17.2389 59.686 17.5314C59.1588 17.8198 58.7138 18.2581 58.3068 18.7315C57.8768 19.2201 57.4188 19.6873 56.8802 20.0353C56.7047 20.1701 56.5132 20.2778 56.3221 20.3854C56.236 20.4337 56.1501 20.4821 56.0657 20.5329C55.9815 20.5714 55.8982 20.6117 55.8149 20.6519L55.8148 20.652C55.6133 20.7494 55.4121 20.8466 55.2007 20.9184C54.924 21.0309 54.6414 21.1244 54.3553 21.2039C53.7914 21.8211 52.9925 21.9992 52.9925 21.9992C52.9925 21.9992 52.9814 21.7874 53.0216 21.4841C52.5284 21.5538 52.0303 21.5787 51.5341 21.571C50.9158 21.5521 50.283 21.492 49.7091 21.2362C50.2896 21.4735 50.92 21.513 51.5348 21.513C52.0377 21.5044 52.5416 21.4627 53.0378 21.3746C53.1536 20.6684 53.5494 19.5922 54.8778 19.4065C54.9648 20.0968 54.7937 20.6128 54.5239 20.9947C54.7328 20.9239 54.9389 20.8448 55.141 20.7553C55.3452 20.6784 55.539 20.5773 55.7325 20.4764L55.7327 20.4764C55.8139 20.434 55.895 20.3917 55.9769 20.3512C56.0585 20.2986 56.1416 20.2484 56.2247 20.1982C56.4074 20.0879 56.5899 19.9776 56.7559 19.8416C57.2685 19.4888 57.6955 19.0235 58.0934 18.5453C58.5027 18.039 58.9603 17.5572 59.5296 17.2216C60.0934 16.8832 60.7672 16.7269 61.4226 16.7934C61.6272 16.8127 61.8257 16.8566 62.0213 16.9119C61.4845 16.4566 60.8548 16.1171 60.2071 15.8258C59.799 15.678 59.3803 15.5462 58.9614 15.4193L57.6714 15.1603L58.9828 15.3045C59.414 15.3943 59.8486 15.4898 60.2779 15.6042C61.1177 15.8967 61.9646 16.2581 62.6698 16.8845C63.3726 17.4995 63.9312 18.327 64.2367 19.2587C64.2564 19.3187 64.2711 19.3792 64.2859 19.4397L64.286 19.44L64.286 19.4403L64.2861 19.4406L64.2862 19.4408L64.2862 19.441L64.2863 19.4413L64.2864 19.4415C64.2957 19.4797 64.305 19.5179 64.3156 19.556C64.6029 18.1292 64.6921 16.6577 64.5662 15.207L64.5647 15.1934L64.5639 15.1677C64.5424 14.5903 64.4682 13.9917 64.3627 13.3943L64.3569 13.3964C64.2782 13.1869 64.1243 12.9162 63.9702 12.6918C63.8049 12.4654 63.6293 12.2406 63.4216 12.0496C63.0175 11.6553 62.5382 11.3428 62.0213 11.1083C60.9738 10.6582 59.794 10.535 58.6221 10.641C57.4116 10.7405 56.187 10.6881 54.9995 10.438C54.6135 10.3501 54.2285 10.2406 53.8521 10.1073C53.2668 10.1995 52.6963 10.4496 52.1783 10.7682C51.917 10.9386 51.6592 11.1191 51.425 11.3314C51.1851 11.5369 50.9667 11.7677 50.7551 12.0054C50.9602 11.7613 51.1717 11.5228 51.4071 11.3088C51.6363 11.0885 51.8907 10.8988 52.1493 10.7183C52.6141 10.4147 53.1164 10.1697 53.657 10.0375C52.9576 9.77004 52.295 9.40511 51.7318 8.89678C52.6921 9.66048 53.8736 10.0214 55.0377 10.2076C55.8786 10.3284 56.7286 10.3453 57.5727 10.2836L57.5481 10.2709L57.548 10.2708L57.5342 10.2637L57.5192 10.2558C57.512 10.252 57.5048 10.248 57.4977 10.2438C57.1499 10.0395 56.8443 9.76919 56.5853 9.46195C56.3347 9.14647 56.1288 8.80043 55.9708 8.43308C55.9171 8.31687 55.8753 8.19482 55.8337 8.07316L55.8336 8.07306C55.8106 8.00582 55.7876 7.93869 55.7627 7.87273L55.6138 7.29549L55.8148 7.85213C55.8455 7.91489 55.8742 7.97857 55.9028 8.04211L55.9029 8.04224L55.903 8.04239L55.903 8.04249C55.9548 8.15751 56.0065 8.27208 56.0695 8.37993C56.2558 8.72071 56.4854 9.03051 56.7463 9.3008C57.0153 9.56257 57.3179 9.77971 57.6457 9.92992C57.9602 10.0766 58.3209 10.1668 58.6331 10.1685C59.8192 9.99202 61.0729 10.0311 62.2584 10.4533C62.8358 10.6705 63.3898 10.981 63.8787 11.3915C63.6384 10.6123 63.3404 9.85261 62.998 9.11591C62.5543 8.16562 62.0319 7.2476 61.4038 6.41284C60.8135 5.54313 60.0847 4.7935 59.3521 4.04416L59.5694 3.76463C60.3914 4.43936 61.1823 5.17493 61.8622 6.02134C62.5572 6.85438 63.1434 7.78576 63.6545 8.75808C64.176 9.72741 64.5628 10.7719 64.8684 11.8382C64.9759 12.2213 65.0677 12.606 65.1507 12.9927C65.1552 13.0022 65.1603 13.0109 65.1653 13.0196L65.1654 13.0197L65.1696 13.027L65.1723 13.0318C65.1756 13.0377 65.1788 13.0438 65.1818 13.0504L65.1638 13.0576ZM52.0958 1.05113L52.0934 1.0511C52.0876 1.05102 52.0816 1.05095 52.0754 1.05034L52.0958 1.05113ZM52.1082 1.05161C52.1041 1.05128 52.1 1.05119 52.0958 1.05113L52.1082 1.05161ZM49.6545 17.958C49.6545 17.958 50.4113 20.1326 52.3598 19.5549C51.8112 17.5032 49.6545 17.958 49.6545 17.958ZM56.1935 11.9476C56.1935 11.9476 56.0642 14.259 58.0697 14.547C58.3432 12.4354 56.1935 11.9476 56.1935 11.9476ZM54.7034 8.39421C55.907 6.68094 54.245 5.16463 54.245 5.16463C54.245 5.16463 53.0758 7.12602 54.7034 8.39421ZM48.5461 12.9294C48.5461 12.9294 50.6725 12.3392 50.3086 10.2429C48.3174 10.626 48.5461 12.9294 48.5461 12.9294ZM48.6423 9.983C48.0778 7.93619 45.9247 8.40956 45.9247 8.40956C45.9247 8.40956 46.6984 10.5772 48.6423 9.983ZM55.8622 15.2181C54.522 14.555 53.7278 16.029 53.7278 16.029C53.7278 16.029 55.2324 16.6295 55.8622 15.2181ZM51.5746 14.3432L51.536 14.3653L51.515 14.4064L51.4939 14.3653L51.4553 14.3432L51.4939 14.3214L51.515 14.2804L51.536 14.3214L51.5746 14.3432Z" fill="white"/>
</svg>
