<svg width="22" height="22" viewBox="0 0 22 22" fill="none" xmlns="http://www.w3.org/2000/svg">
<path d="M2.09389 14.6345C1.24324 15.4851 1.33064 16.8888 2.28022 17.6274L4.26589 19.1718C6.65442 21.0295 10.0525 20.818 12.1922 18.6783L18.6779 12.1926C20.8175 10.053 21.0291 6.65486 19.1714 4.26633L17.6269 2.28067C16.8884 1.33107 15.4847 1.24369 14.634 2.09434L12.8086 3.91973C12.0276 4.70078 12.0276 5.96711 12.8086 6.74816L13.8693 7.80882C14.2598 8.19935 14.2598 8.83251 13.8693 9.22303L9.22259 13.8697C8.83207 14.2603 8.1989 14.2603 7.80838 13.8697L6.74772 12.8091C5.96667 12.028 4.70034 12.028 3.91929 12.8091L2.09389 14.6345Z" stroke="white" stroke-width="2"/>
</svg>
