<svg width="24" height="24" viewBox="0 0 24 24" fill="none" xmlns="http://www.w3.org/2000/svg">
<path d="M21 6V23H3V1H16M21 6L16 1M21 6H16V1" stroke="#397479" stroke-width="2" stroke-linecap="round" stroke-linejoin="round"/>
<path d="M5 15.8182V10H7.29545C7.73674 10 8.11269 10.0843 8.4233 10.2528C8.7339 10.4195 8.97064 10.6515 9.13352 10.9489C9.2983 11.2443 9.38068 11.5852 9.38068 11.9716C9.38068 12.358 9.29735 12.6989 9.13068 12.9943C8.96402 13.2898 8.72254 13.5199 8.40625 13.6847C8.09186 13.8494 7.71117 13.9318 7.2642 13.9318H5.80114V12.946H7.06534C7.30208 12.946 7.49716 12.9053 7.65057 12.8239C7.80587 12.7405 7.9214 12.626 7.99716 12.4801C8.07481 12.3324 8.11364 12.1629 8.11364 11.9716C8.11364 11.7784 8.07481 11.6099 7.99716 11.4659C7.9214 11.3201 7.80587 11.2074 7.65057 11.1278C7.49527 11.0464 7.2983 11.0057 7.05966 11.0057H6.23011V15.8182H5Z" fill="#397479"/>
<path d="M12.0822 15.8182H10.0197V10H12.0992C12.6845 10 13.1882 10.1165 13.6106 10.3494C14.0329 10.5805 14.3578 10.9129 14.585 11.3466C14.8142 11.7803 14.9288 12.2992 14.9288 12.9034C14.9288 13.5095 14.8142 14.0303 14.585 14.4659C14.3578 14.9015 14.0311 15.2358 13.6049 15.4688C13.1807 15.7017 12.6731 15.8182 12.0822 15.8182ZM11.2498 14.7642H12.0311C12.3947 14.7642 12.7006 14.6998 12.9487 14.571C13.1987 14.4403 13.3862 14.2386 13.5112 13.9659C13.6381 13.6913 13.7015 13.3371 13.7015 12.9034C13.7015 12.4735 13.6381 12.1222 13.5112 11.8494C13.3862 11.5767 13.1996 11.376 12.9515 11.2472C12.7034 11.1184 12.3975 11.054 12.0339 11.054H11.2498V14.7642Z" fill="#397479"/>
<path d="M15.68 15.8182V10L19 10V11.0142L16.9101 11.0142V12.4006H19V13.4148H16.9101V15.8182H15.68Z" fill="#397479"/>
</svg>
