<svg width="25" height="24" viewBox="0 0 25 24" fill="none" xmlns="http://www.w3.org/2000/svg">
<g clip-path="url(#clip0_25_10077)">
<path d="M7.57098 21.5061L18.8847 10.1924M7.57098 21.5061L2.62123 22.2132L3.32834 17.2635M7.57098 21.5061L3.32834 17.2635M3.32834 17.2635L14.642 5.94975M14.642 5.94975L17.4705 3.12132L18.1776 3.82843M14.642 5.94975L18.8847 10.1924M18.8847 10.1924L21.7131 7.36396L21.006 6.65685M18.8847 10.1924L19.5918 10.8995C20.3728 11.6805 20.3728 12.9469 19.5918 13.7279L16.4098 16.9099M18.1776 3.82843L20.2989 1.70711L23.1273 4.53553L21.006 6.65685M18.1776 3.82843L21.006 6.65685" stroke="#397479" stroke-width="2" stroke-linecap="round" stroke-linejoin="round"/>
</g>
<defs>
<clipPath id="clip0_25_10077">
<rect width="24" height="24" fill="white" transform="translate(0.5)"/>
</clipPath>
</defs>
</svg>
