<svg width="24" height="24" viewBox="0 0 24 24" fill="none" xmlns="http://www.w3.org/2000/svg">
<path d="M1.61712 10.1583C9.00247 6.31551 18.559 1.6304 19.8787 0.981813C23.3389 -0.715271 24.4008 -0.390351 23.8714 3.36873C23.4911 6.07057 22.3944 15.0146 21.5195 20.582C21.0008 23.8837 19.8364 24.2749 18.0065 22.8465C17.1264 22.1591 12.6835 18.6837 11.7189 17.8677C10.8388 17.1241 9.62478 16.2293 11.1473 14.4673C11.6893 13.8399 15.2404 9.8284 18.0075 6.70666C18.3699 6.29676 17.9145 5.62318 17.4961 5.95185C13.7665 8.87738 8.59569 12.9376 7.93745 13.4663C6.94323 14.2648 5.9881 14.631 4.27436 14.0486C2.97902 13.6087 1.71432 13.0838 1.22196 12.8839C-0.674562 12.1141 -0.224467 11.1168 1.61712 10.1583Z" fill="white"/>
</svg>
