<svg width="35" height="24" viewBox="0 0 35 24" fill="none" xmlns="http://www.w3.org/2000/svg">
<path d="M29.0437 13.7623C28.4779 12.9223 28.6397 12.5486 29.0437 11.7977C29.051 11.7891 33.7222 4.20171 34.2035 1.62857L34.2064 1.62686C34.4456 0.689143 34.2064 0 33.0499 0H29.2231C28.2489 0 27.7997 0.591428 27.5591 1.25314C27.5591 1.25314 25.6107 6.73543 22.8543 10.2891C21.9647 11.316 21.5535 11.6451 21.0678 11.6451C20.8286 11.6451 20.4568 11.316 20.4568 10.3783V1.62686C20.4568 0.502285 20.184 0 19.3775 0H13.3603C12.7492 0 12.3861 0.524572 12.3861 1.01314C12.3861 2.07943 13.7642 2.32457 13.9071 5.32457V11.8337C13.9071 13.26 13.6869 13.5223 13.1984 13.5223C11.8975 13.5223 8.7401 8.01771 6.86899 1.71771C6.49127 0.495428 6.1223 0.00171416 5.1408 0.00171416H1.31255C0.220216 0.00171416 0 0.593143 0 1.25486C0 2.424 1.30088 8.23714 6.04938 15.9171C9.21407 21.1594 13.6709 24 17.7252 24C20.1622 24 20.4597 23.3691 20.4597 22.284C20.4597 17.2749 20.2395 16.8017 21.4601 16.8017C22.026 16.8017 23.0002 17.1309 25.2753 19.6594C27.8755 22.6577 28.3029 24 29.7583 24H33.5851C34.676 24 35.2287 23.3691 34.9108 22.1246C34.1831 19.5069 29.2654 14.1223 29.0437 13.7623Z" fill="white"/>
</svg>
